<svg aria-hidden="true" style="position: absolute; width: 0; height: 0; overflow: hidden;" version="1.1" xmlns="http://www.w3.org/2000/svg" xmlns:xlink="http://www.w3.org/1999/xlink">
<defs>
<symbol id="icon-viber_logo_icon_144761" viewBox="0 0 32 32">
<path d="M15.198 0.005c-2.568 0.031-8.089 0.453-11.177 3.286-2.297 2.276-3.099 5.641-3.193 9.802-0.078 4.146-0.172 11.932 7.333 14.052v3.229c0 0-0.047 1.292 0.807 1.557 1.052 0.333 1.651-0.661 2.651-1.729l1.865-2.109c5.135 0.427 9.068-0.557 9.521-0.703 1.042-0.333 6.911-1.083 7.87-8.87 0.984-8.042-0.479-13.109-3.12-15.401h-0.016c-0.797-0.734-4-3.068-11.156-3.094 0 0-0.531-0.036-1.385-0.021zM15.286 2.266c0.729-0.005 1.172 0.026 1.172 0.026 6.057 0.016 8.948 1.839 9.63 2.453 2.224 1.906 3.37 6.474 2.531 13.188-0.797 6.51-5.557 6.922-6.438 7.203-0.375 0.12-3.839 0.974-8.203 0.693 0 0-3.25 3.922-4.266 4.932-0.161 0.177-0.349 0.229-0.469 0.203-0.172-0.042-0.224-0.255-0.214-0.547l0.031-5.359c-6.365-1.76-5.99-8.401-5.922-11.87 0.078-3.469 0.729-6.307 2.667-8.229 2.609-2.359 7.297-2.677 9.479-2.693zM15.766 5.734c-0.219-0.005-0.401 0.177-0.401 0.396 0 0.224 0.182 0.401 0.401 0.401 2.005-0.036 3.938 0.724 5.375 2.12 1.453 1.411 2.161 3.307 2.188 5.786 0 0.219 0.177 0.401 0.401 0.401v-0.016c0.219 0 0.401-0.177 0.401-0.396 0.099-2.359-0.776-4.651-2.417-6.349-1.583-1.547-3.589-2.344-5.948-2.344zM10.495 6.651c-0.281-0.042-0.573 0.016-0.818 0.161h-0.021c-0.542 0.318-1.047 0.719-1.526 1.255-0.365 0.422-0.563 0.849-0.615 1.26-0.031 0.245-0.010 0.49 0.063 0.724l0.026 0.016c0.411 1.208 0.948 2.37 1.604 3.464 0.844 1.536 1.885 2.958 3.094 4.229l0.036 0.052 0.057 0.042 0.036 0.042 0.042 0.036c1.276 1.214 2.698 2.255 4.24 3.109 1.76 0.958 2.828 1.411 3.469 1.599v0.010c0.188 0.057 0.359 0.083 0.531 0.083 0.547-0.042 1.063-0.26 1.469-0.63 0.521-0.469 0.932-0.984 1.24-1.531v-0.010c0.307-0.578 0.203-1.125-0.24-1.495-0.885-0.776-1.849-1.464-2.865-2.057-0.682-0.37-1.375-0.146-1.656 0.229l-0.599 0.755c-0.307 0.375-0.865 0.323-0.865 0.323l-0.016 0.010c-4.161-1.063-5.271-5.276-5.271-5.276s-0.052-0.573 0.333-0.865l0.75-0.604c0.359-0.292 0.609-0.984 0.224-1.667-0.589-1.021-1.276-1.979-2.052-2.865-0.167-0.208-0.406-0.349-0.672-0.401zM16.458 7.839c-0.531 0-0.531 0.802 0.005 0.802 1.333 0.021 2.604 0.573 3.531 1.531 0.844 0.932 1.281 2.172 1.198 3.427 0.005 0.219 0.182 0.396 0.401 0.396l0.016 0.021c0.219 0 0.401-0.182 0.401-0.401 0.036-1.589-0.458-2.922-1.427-3.99-0.974-1.068-2.333-1.667-4.068-1.786-0.021 0-0.036 0-0.057 0zM17.115 9.995c-0.547-0.016-0.568 0.802-0.026 0.818 1.318 0.068 1.958 0.734 2.042 2.104 0.005 0.219 0.182 0.391 0.396 0.391h0.016c0.224-0.010 0.401-0.203 0.385-0.427-0.094-1.786-1.068-2.792-2.797-2.885-0.005 0-0.010 0-0.016 0z"></path>
</symbol>
<symbol id="icon-clock" viewBox="0 0 32 32">
<path d="M20.586 23.414l-6.586-6.586v-8.828h4v7.172l5.414 5.414zM16 0c-8.837 0-16 7.163-16 16s7.163 16 16 16 16-7.163 16-16-7.163-16-16-16zM16 28c-6.627 0-12-5.373-12-12s5.373-12 12-12c6.627 0 12 5.373 12 12s-5.373 12-12 12z"></path>
</symbol>
<symbol id="icon-location" viewBox="0 0 32 32">
<path d="M16 0c-5.523 0-10 4.477-10 10 0 10 10 22 10 22s10-12 10-22c0-5.523-4.477-10-10-10zM16 16c-3.314 0-6-2.686-6-6s2.686-6 6-6 6 2.686 6 6-2.686 6-6 6z"></path>
</symbol>
<symbol id="icon-instagram" viewBox="0 0 32 32">
<path d="M16 2.881c4.275 0 4.781 0.019 6.462 0.094 1.563 0.069 2.406 0.331 2.969 0.55 0.744 0.288 1.281 0.638 1.837 1.194 0.563 0.563 0.906 1.094 1.2 1.838 0.219 0.563 0.481 1.412 0.55 2.969 0.075 1.688 0.094 2.194 0.094 6.463s-0.019 4.781-0.094 6.463c-0.069 1.563-0.331 2.406-0.55 2.969-0.288 0.744-0.637 1.281-1.194 1.837-0.563 0.563-1.094 0.906-1.837 1.2-0.563 0.219-1.413 0.481-2.969 0.55-1.688 0.075-2.194 0.094-6.463 0.094s-4.781-0.019-6.463-0.094c-1.563-0.069-2.406-0.331-2.969-0.55-0.744-0.288-1.281-0.637-1.838-1.194-0.563-0.563-0.906-1.094-1.2-1.837-0.219-0.563-0.481-1.413-0.55-2.969-0.075-1.688-0.094-2.194-0.094-6.463s0.019-4.781 0.094-6.463c0.069-1.563 0.331-2.406 0.55-2.969 0.288-0.744 0.638-1.281 1.194-1.838 0.563-0.563 1.094-0.906 1.838-1.2 0.563-0.219 1.412-0.481 2.969-0.55 1.681-0.075 2.188-0.094 6.463-0.094zM16 0c-4.344 0-4.887 0.019-6.594 0.094-1.7 0.075-2.869 0.35-3.881 0.744-1.056 0.412-1.95 0.956-2.837 1.85-0.894 0.888-1.438 1.781-1.85 2.831-0.394 1.019-0.669 2.181-0.744 3.881-0.075 1.713-0.094 2.256-0.094 6.6s0.019 4.887 0.094 6.594c0.075 1.7 0.35 2.869 0.744 3.881 0.413 1.056 0.956 1.95 1.85 2.837 0.887 0.887 1.781 1.438 2.831 1.844 1.019 0.394 2.181 0.669 3.881 0.744 1.706 0.075 2.25 0.094 6.594 0.094s4.888-0.019 6.594-0.094c1.7-0.075 2.869-0.35 3.881-0.744 1.050-0.406 1.944-0.956 2.831-1.844s1.438-1.781 1.844-2.831c0.394-1.019 0.669-2.181 0.744-3.881 0.075-1.706 0.094-2.25 0.094-6.594s-0.019-4.887-0.094-6.594c-0.075-1.7-0.35-2.869-0.744-3.881-0.394-1.063-0.938-1.956-1.831-2.844-0.887-0.887-1.781-1.438-2.831-1.844-1.019-0.394-2.181-0.669-3.881-0.744-1.712-0.081-2.256-0.1-6.6-0.1v0z"></path>
<path d="M16 7.781c-4.537 0-8.219 3.681-8.219 8.219s3.681 8.219 8.219 8.219 8.219-3.681 8.219-8.219c0-4.537-3.681-8.219-8.219-8.219zM16 21.331c-2.944 0-5.331-2.387-5.331-5.331s2.387-5.331 5.331-5.331c2.944 0 5.331 2.387 5.331 5.331s-2.387 5.331-5.331 5.331z"></path>
<path d="M26.462 7.456c0 1.060-0.859 1.919-1.919 1.919s-1.919-0.859-1.919-1.919c0-1.060 0.859-1.919 1.919-1.919s1.919 0.859 1.919 1.919z"></path>
</symbol>
<symbol id="icon-phone" viewBox="0 0 32 32">
<path d="M22 20c-2 2-2 4-4 4s-4-2-6-4-4-4-4-6 2-2 4-4-4-8-6-8-6 6-6 6c0 4 4.109 12.109 8 16s12 8 16 8c0 0 6-4 6-6s-6-8-8-6z"></path>
</symbol>
</defs>
</svg>
